<svg width="25" height="24" fill="none" xmlns="http://www.w3.org/2000/svg"><g clip-path="url(#clip0_1_309)"><path d="M21.227 0H3.773A3.273 3.273 0 00.5 3.273v17.454A3.273 3.273 0 003.773 24h17.454a3.273 3.273 0 003.273-3.273V3.273A3.273 3.273 0 0021.227 0z" fill="#fff"/><path d="M19.037 6.205l-.248.09-13.47 4.853a.451.451 0 00.04.873l3.486.954.65 1.91.651 1.908a.62.62 0 00.999.223l1.8-1.702 3.538 2.398c.433.295 1.049.077 1.16-.409l2.342-10.351c.115-.513-.425-.934-.948-.747zm-1.72 2.297l-6.085 4.975-.287.234a.31.31 0 00-.114.202l-.064.53-.176 1.486a.068.068 0 01-.063.073.069.069 0 01-.073-.062l-.495-1.486-.512-1.52a.308.308 0 01.147-.364l6.333-3.63 1.192-.682c.173-.1.35.119.198.244z" fill="#090F1D"/></g><defs><clipPath id="clip0_1_309"><path fill="#fff" transform="translate(.5)" d="M0 0h24v24H0z"/></clipPath></defs></svg>