<svg width="25" height="24" fill="none" xmlns="http://www.w3.org/2000/svg"><g clip-path="url(#clip0_1_314)"><path d="M21.227 0H3.773A3.273 3.273 0 00.5 3.273v17.454A3.273 3.273 0 003.773 24h17.454a3.273 3.273 0 003.273-3.273V3.273A3.273 3.273 0 0021.227 0z" fill="#fff"/><path d="M19.971 7.46a6.43 6.43 0 01-1.285 1.412.545.545 0 00-.206.428v.05a9.016 9.016 0 01-.581 3.137 9.18 9.18 0 01-1.709 2.864 8.368 8.368 0 01-3.69 2.435 9.271 9.271 0 01-2.91.453 8.881 8.881 0 01-4.454-1.203.255.255 0 01-.121-.284.247.247 0 01.241-.185h.374c1.19 0 2.351-.356 3.337-1.021a3.244 3.244 0 01-2.561-2.199.17.17 0 01.192-.218c.18.034.363.052.546.052h.068a3.243 3.243 0 01-1.889-2.984.17.17 0 01.252-.147c.232.129.48.225.737.286a3.239 3.239 0 01-.525-3.927.17.17 0 01.273-.023 8.478 8.478 0 005.832 3.112h.012a.126.126 0 00.089-.041.118.118 0 00.028-.092 3.492 3.492 0 01.077-1.183c.081-.34.22-.662.409-.955a3.137 3.137 0 011.71-1.309 3.455 3.455 0 011.024-.158 3.23 3.23 0 012.14.807.421.421 0 00.272.107.41.41 0 00.098-.014 5.953 5.953 0 001.58-.653.17.17 0 01.249.198 3.226 3.226 0 01-.85 1.355 5.9 5.9 0 001.033-.35.17.17 0 01.208.25z" fill="#090F1D"/></g><defs><clipPath id="clip0_1_314"><path fill="#fff" transform="translate(.5)" d="M0 0h24v24H0z"/></clipPath></defs></svg>