<svg width="25" height="24" fill="none" xmlns="http://www.w3.org/2000/svg"><path d="M21.227 0H3.773A3.273 3.273 0 00.5 3.273v17.454A3.273 3.273 0 003.773 24h17.454a3.273 3.273 0 003.273-3.273V3.273A3.273 3.273 0 0021.227 0z" fill="#fff"/><path d="M16.302 10.58l-.241 2.09a.391.391 0 01-.385.35h-2.182l-.01 6.198a.28.28 0 01-.274.282H11a.273.273 0 01-.273-.284V13.02H9.091a.392.392 0 01-.387-.396l-.009-2.09a.393.393 0 01.388-.398h1.644V8.118c0-2.343 1.391-3.618 3.431-3.618h1.672a.393.393 0 01.389.398v1.76a.392.392 0 01-.389.397h-1.025c-1.11 0-1.325.546-1.325 1.334v1.747h2.437a.393.393 0 01.385.443z" fill="#090F1D"/></svg>