<?xml version="1.0" encoding="utf-8"?><svg viewBox="0 0 28 28" xmlns="http://www.w3.org/2000/svg" xmlns:xlink="http://www.w3.org/1999/xlink"><style>:root>svg{display:none}:root>svg:target{display:block}</style><svg fill="none" viewBox="0 0 28 28" id="logo" xmlns="http://www.w3.org/2000/svg"><path d="M27.053 8.94a14 14 0 1 0-.245 10.712L14 14l13.053-5.06Z" fill="#D3F85A"/><circle cx="6" cy="14" r="2" fill="#090F1D"/></svg><svg fill="none" viewBox="0 0 25 24" id="soc-facebook" xmlns="http://www.w3.org/2000/svg"><path d="M21.227 0H3.773A3.273 3.273 0 0 0 .5 3.273v17.454A3.273 3.273 0 0 0 3.773 24h17.454a3.273 3.273 0 0 0 3.273-3.273V3.273A3.273 3.273 0 0 0 21.227 0Z" fill="#fff"/><path d="m16.302 10.58-.241 2.09a.391.391 0 0 1-.385.35h-2.182l-.01 6.198a.28.28 0 0 1-.274.282H11a.273.273 0 0 1-.273-.284V13.02H9.091a.392.392 0 0 1-.387-.396l-.009-2.09a.393.393 0 0 1 .388-.398h1.644V8.118c0-2.343 1.391-3.618 3.431-3.618h1.672a.393.393 0 0 1 .389.398v1.76a.392.392 0 0 1-.389.397h-1.025c-1.11 0-1.325.546-1.325 1.334v1.747h2.437a.393.393 0 0 1 .385.443Z" fill="#090F1D"/></svg><svg fill="none" viewBox="0 0 25 24" id="soc-lin" xmlns="http://www.w3.org/2000/svg"><path d="M21.227 0H3.773A3.273 3.273 0 0 0 .5 3.273v17.454A3.273 3.273 0 0 0 3.773 24h17.454a3.273 3.273 0 0 0 3.273-3.273V3.273A3.273 3.273 0 0 0 21.227 0Z" fill="#fff"/><path d="M9.145 6.545a2.045 2.045 0 1 1-4.09 0 2.045 2.045 0 0 1 4.09 0Zm-.463 3.41v9.036a.506.506 0 0 1-.506.509H6.02a.506.506 0 0 1-.507-.507V9.955a.507.507 0 0 1 .507-.508h2.156a.507.507 0 0 1 .506.508Zm11.269 4.704v4.375a.464.464 0 0 1-.466.466h-2.319a.466.466 0 0 1-.466-.466v-4.24c0-.633.186-2.77-1.654-2.77-1.425 0-1.715 1.462-1.773 2.12v4.89a.466.466 0 0 1-.46.466h-2.238a.466.466 0 0 1-.465-.466V9.915a.464.464 0 0 1 .465-.466h2.239a.466.466 0 0 1 .466.466v.788c.53-.793 1.313-1.406 2.986-1.406 3.707 0 3.685 3.461 3.685 5.362Z" fill="#090F1D"/></svg><svg fill="none" viewBox="0 0 25 24" id="soc-twitter" xmlns="http://www.w3.org/2000/svg"><g clip-path="url(#da)"><path d="M21.227 0H3.773A3.273 3.273 0 0 0 .5 3.273v17.454A3.273 3.273 0 0 0 3.773 24h17.454a3.273 3.273 0 0 0 3.273-3.273V3.273A3.273 3.273 0 0 0 21.227 0Z" fill="#fff"/><path d="M19.971 7.46a6.43 6.43 0 0 1-1.285 1.412.545.545 0 0 0-.206.428v.05a9.016 9.016 0 0 1-.581 3.137 9.18 9.18 0 0 1-1.709 2.864 8.368 8.368 0 0 1-3.69 2.435 9.271 9.271 0 0 1-2.91.453 8.881 8.881 0 0 1-4.454-1.203.255.255 0 0 1-.121-.284.247.247 0 0 1 .241-.185h.374c1.19 0 2.351-.356 3.337-1.021a3.244 3.244 0 0 1-2.561-2.199.17.17 0 0 1 .192-.218c.18.034.363.052.546.052h.068a3.243 3.243 0 0 1-1.889-2.984.17.17 0 0 1 .252-.147c.232.129.48.225.737.286a3.239 3.239 0 0 1-.525-3.927.17.17 0 0 1 .273-.023 8.478 8.478 0 0 0 5.832 3.112h.012a.126.126 0 0 0 .089-.041.118.118 0 0 0 .028-.092 3.492 3.492 0 0 1 .077-1.183c.081-.34.22-.662.409-.955a3.137 3.137 0 0 1 1.71-1.309 3.455 3.455 0 0 1 1.024-.158 3.23 3.23 0 0 1 2.14.807.421.421 0 0 0 .272.107.41.41 0 0 0 .098-.014 5.953 5.953 0 0 0 1.58-.653.17.17 0 0 1 .249.198 3.226 3.226 0 0 1-.85 1.355c.354-.085.7-.201 1.033-.35a.17.17 0 0 1 .208.25Z" fill="#090F1D"/></g><defs><clipPath id="da"><path fill="#fff" transform="translate(.5)" d="M0 0h24v24H0z"/></clipPath></defs></svg><svg fill="none" viewBox="0 0 24 25" id="top-week-clock" xmlns="http://www.w3.org/2000/svg"><path d="M22 12.5c0 5.52-4.48 10-10 10s-10-4.48-10-10 4.48-10 10-10 10 4.48 10 10Z" stroke="#fff" stroke-width="1.5" stroke-linecap="round" stroke-linejoin="round"/><path d="m15.71 15.68-3.1-1.85c-.54-.32-.98-1.09-.98-1.72v-4.1" stroke="#fff" stroke-width="1.5" stroke-linecap="round" stroke-linejoin="round"/></svg><svg fill="none" viewBox="0 0 24 25" id="top-week-icon" xmlns="http://www.w3.org/2000/svg"><path d="m6.9 9.6 4.8-2.1c.2-.1.4-.1.7 0l4.8 2.1c.4.2.8-.3.5-.7l-5-6.1c-.3-.4-.9-.4-1.2 0l-5 6.1c-.4.4 0 .9.4.7ZM6.9 15.4l4.8 2.1c.2.1.4.1.7 0l4.8-2.1c.4-.2.8.3.5.7l-5 6.1c-.3.4-.9.4-1.2 0l-5-6.1c-.4-.4 0-.9.4-.7ZM12 9.9l-5.2 2.6 5.2 2.6 5.2-2.6L12 9.9Z" stroke="#fff" stroke-width="1.5" stroke-miterlimit="10" stroke-linecap="round" stroke-linejoin="round"/></svg></svg>